<svg width="32" height="32" viewBox="0 0 32 32" fill="none" xmlns="http://www.w3.org/2000/svg">
<circle cx="16" cy="16" r="16" fill="#2B32EA"/>
<path d="M23.2435 9.94921C23.027 9.72393 22.7976 9.51084 22.5563 9.31096C22.5563 9.31096 21.5416 8.4386 20.1919 7.81871C20.1666 7.80718 20.1384 7.80309 20.1107 7.80691C20.083 7.81073 20.0571 7.8223 20.036 7.84023C20.0149 7.85817 19.9996 7.88168 19.9919 7.90793C19.9842 7.93419 19.9845 7.96205 19.9927 7.98815C20.1858 8.6151 20.5307 10.113 19.9349 11.4214C19.8022 11.8205 19.9473 11.9919 20.2304 12.0294C20.2708 12.0518 20.3137 12.0693 20.3584 12.0817C20.7872 12.1996 21.2233 12.3389 21.6665 12.4997C21.7154 12.5173 21.7584 12.5475 21.7912 12.5871C21.8239 12.6267 21.8451 12.6742 21.8524 12.7246C21.8598 12.7749 21.8531 12.8263 21.8331 12.8733C21.813 12.9202 21.7803 12.961 21.7385 12.9913L19.1324 14.8835L17.099 16.358L17.6572 14.8824L18.8173 11.8162C18.8173 11.8134 19.54 9.68601 19.0072 7.73483C18.9808 7.63771 18.9284 7.54918 18.8555 7.47828C18.7825 7.40739 18.6917 7.35666 18.5921 7.33127C16.8942 6.88958 15.1076 6.88958 13.4097 7.33127C13.31 7.35654 13.219 7.40722 13.146 7.47813C13.0729 7.54904 13.0205 7.63762 12.994 7.73483C12.4603 9.68742 13.1842 11.8162 13.1842 11.8162V11.8185L14.3434 14.8824L14.9019 16.358L12.8691 14.8824L10.4382 13.1193C10.3971 13.0895 10.3648 13.0496 10.3447 13.0037C10.3245 12.9578 10.3172 12.9075 10.3235 12.8579C10.3297 12.8083 10.3494 12.7612 10.3803 12.7215C10.4113 12.6817 10.4525 12.6507 10.4997 12.6315C10.8808 12.4768 11.2884 12.3285 11.7165 12.1958C11.7947 12.1715 11.8666 12.1312 11.9276 12.0776C11.9886 12.024 12.0373 11.9584 12.0703 11.885C12.1033 11.8117 12.12 11.7323 12.1192 11.6522C12.1184 11.5721 12.1002 11.493 12.0657 11.4203C11.469 10.1116 11.8139 8.61369 12.0079 7.98702C12.0161 7.96096 12.0163 7.93314 12.0087 7.90693C12.001 7.88072 11.9857 7.85724 11.9647 7.83932C11.9436 7.82141 11.9178 7.80982 11.8901 7.80596C11.8625 7.8021 11.8343 7.80614 11.809 7.81758C10.459 8.43747 9.4443 9.30983 9.4443 9.30983C9.2052 9.50795 8.97772 9.71905 8.76292 9.94215C7.54212 11.213 7.82629 13.2591 9.34832 14.1684L14.492 17.2425L12.2981 17.9598C11.6951 18.1575 11.2016 18.8262 11.2016 19.4475V22.5137C11.2016 23.135 11.6951 23.8043 12.2981 24.0014L14.9019 24.852C15.5053 25.0497 16.4919 25.0497 17.0955 24.852L19.7008 24.0014C20.3038 23.8037 20.7975 23.135 20.7975 22.5137V19.4475C20.7975 18.8262 20.3038 18.1569 19.7008 17.9598L17.5078 17.2425L22.6535 14.1687C24.1715 13.2619 24.4605 11.2186 23.2435 9.94921ZM14.1139 11.6544C15.3705 11.4762 16.6455 11.4589 17.9067 11.6027L16.5916 14.8824L16.0005 16.358L15.409 14.8824L14.1139 11.6544ZM18.9971 18.8505C19.3229 18.957 19.5895 19.3185 19.5895 19.654V21.874C19.5895 22.3055 19.2469 22.5464 18.828 22.4106L16.6414 21.6961C16.2887 21.5809 15.7111 21.5809 15.3584 21.6961L13.1718 22.4106C12.7529 22.5473 12.4103 22.3064 12.4103 21.874V19.654C12.4103 19.3185 12.6768 18.9567 13.0026 18.8505L14.9019 18.2309C15.5053 18.0332 16.4919 18.0332 17.0955 18.2309L18.9971 18.8505Z" fill="white"/>
</svg>
